# Blender v3.1.2 OBJ File: 'blue_shape.blend'
# www.blender.org
mtllib blue_shape.mtl
o Cube
v 1.000000 1.000000 -0.423279
v 0.423279 1.000000 -1.000000
v 0.423279 -1.000000 -1.000000
v 1.000000 -1.000000 -0.423279
v 0.423279 1.000000 1.000000
v 1.000000 1.000000 0.423279
v 1.000000 -1.000000 0.423279
v 0.423279 -1.000000 1.000000
v -0.423279 1.000000 -1.000000
v -1.000000 1.000000 -0.423279
v -1.000000 -1.000000 -0.423279
v -0.423279 -1.000000 -1.000000
v -1.000000 1.000000 0.423279
v -0.423279 1.000000 1.000000
v -0.423279 -1.000000 1.000000
v -1.000000 -1.000000 0.423279
v 0.863988 0.452794 -0.283222
v 0.283222 0.452794 -0.863988
v 0.283222 0.697751 -0.863988
v 0.863988 0.697751 -0.283222
v -0.863988 0.697751 -0.283222
v -0.283222 0.697751 -0.863988
v -0.283222 0.452794 -0.863988
v -0.863988 0.452794 -0.283222
v 0.863988 0.697751 0.283222
v 0.283222 0.697751 0.863988
v 0.283222 0.452794 0.863988
v 0.863988 0.452794 0.283222
v -0.863988 0.452794 0.283222
v -0.283222 0.452794 0.863988
v -0.283222 0.697751 0.863988
v -0.863988 0.697751 0.283222
v 0.388373 0.697751 -0.967642
v 0.421476 0.738177 -1.000000
v 1.000000 0.738177 -0.421476
v 0.967642 0.697751 -0.388373
v 0.967642 0.452794 -0.388373
v 1.000000 0.412367 -0.421255
v 0.421255 0.412367 -1.000000
v 0.388373 0.452794 -0.967642
v -0.421255 0.412367 1.000000
v -0.388373 0.452794 0.967642
v -0.967642 0.452794 0.388373
v -1.000000 0.412367 0.421255
v -1.000000 0.738177 0.421476
v -0.967642 0.697751 0.388373
v -0.388373 0.697751 0.967642
v -0.421476 0.738177 1.000000
v 0.421476 0.738177 1.000000
v 0.388373 0.697751 0.967642
v 0.967642 0.697751 0.388373
v 1.000000 0.738177 0.421476
v 1.000000 0.412367 0.421255
v 0.967642 0.452794 0.388373
v 0.388373 0.452794 0.967642
v 0.421255 0.412367 1.000000
v -0.388373 0.452794 -0.967642
v -0.421255 0.412367 -1.000000
v -1.000000 0.412367 -0.421255
v -0.967642 0.452794 -0.388373
v -0.967642 0.697751 -0.388373
v -1.000000 0.738177 -0.421476
v -0.421476 0.738177 -1.000000
v -0.388373 0.697751 -0.967642
vt 0.587219 0.575128
vt 0.587219 0.584024
vt 0.587219 0.415976
vt 0.587219 0.424872
vt 0.556599 0.424872
vt 0.556599 0.325128
vt 0.556599 0.334024
vt 0.556599 0.415976
vt 0.592272 0.822316
vt 0.625000 0.822090
vt 0.625000 0.927910
vt 0.592272 0.927685
vt 0.556599 0.674872
vt 0.556599 0.575128
vt 0.556599 0.584024
vt 0.556599 0.665976
vt 0.556599 0.084024
vt 0.556599 0.075128
vt 0.556599 0.000000
vt 0.556599 0.000000
vt 0.556599 0.174872
vt 0.556599 0.165976
vt 0.625000 0.572090
vt 0.697090 0.500000
vt 0.802910 0.500000
vt 0.875000 0.572090
vt 0.875000 0.677910
vt 0.802910 0.750000
vt 0.697090 0.750000
vt 0.625000 0.677910
vt 0.125000 0.572090
vt 0.197090 0.500000
vt 0.302910 0.500000
vt 0.375000 0.572090
vt 0.375000 0.677910
vt 0.302910 0.750000
vt 0.197090 0.750000
vt 0.125000 0.677910
vt 0.375000 0.072090
vt 0.551546 0.072343
vt 0.551546 0.177657
vt 0.375000 0.177910
vt 0.375000 0.322090
vt 0.551546 0.322343
vt 0.551546 0.427657
vt 0.375000 0.427910
vt 0.587219 0.075128
vt 0.587219 0.084024
vt 0.587219 0.000000
vt 0.587219 0.000000
vt 0.587219 0.834024
vt 0.587219 0.915976
vt 0.556599 0.915976
vt 0.556599 0.834024
vt 0.592272 0.572316
vt 0.592272 0.677684
vt 0.587219 0.334024
vt 0.587219 0.825127
vt 0.587219 0.924873
vt 0.587219 0.674872
vt 0.587219 0.665976
vt 0.592272 0.000000
vt 0.625000 0.000000
vt 0.625000 0.072090
vt 0.592272 0.072315
vt 0.587219 0.165976
vt 0.375000 0.000000
vt 0.551546 0.000000
vt 0.592272 0.177685
vt 0.625000 0.177910
vt 0.625000 0.322090
vt 0.592272 0.322315
vt 0.587219 0.325128
vt 0.551546 0.572343
vt 0.587219 0.174872
vt 0.551546 0.677657
vt 0.625000 0.427910
vt 0.592272 0.427684
vt 0.375000 0.822090
vt 0.551546 0.822343
vt 0.551546 0.927657
vt 0.375000 0.927910
vt 0.556599 0.825127
vt 0.556599 0.924872
vn 0.0000 -1.0000 0.0000
vn 0.0000 1.0000 0.0000
vn 0.0000 0.0000 1.0000
vn -1.0000 0.0000 0.0000
vn 0.0000 0.0000 -1.0000
vn 1.0000 0.0000 0.0000
vn -0.7071 -0.0049 0.7071
vn 0.7071 -0.0049 0.7071
vn -0.7071 0.0010 0.7071
vn -0.7071 0.0000 0.7071
vn 0.7071 0.0000 -0.7071
vn -0.7071 0.0000 -0.7071
vn 0.7071 0.0000 0.7071
vn -0.7071 -0.0049 -0.7071
vn 0.7071 0.0010 -0.7071
vn -0.7071 0.0010 -0.7071
vn 0.7071 0.0010 0.7071
vn -0.4651 -0.7532 -0.4651
vn 0.4651 -0.7532 -0.4651
vn 0.4660 0.7521 -0.4660
vn -0.4660 0.7521 -0.4660
vn 0.4660 0.7521 0.4660
vn 0.4651 -0.7532 0.4651
vn -0.4651 -0.7532 0.4651
vn -0.4660 0.7521 0.4660
vn 0.7807 -0.6249 0.0000
vn 0.0000 -0.6249 -0.7807
vn 0.0000 0.6249 -0.7807
vn 0.7807 0.6249 0.0000
vn 0.0000 -0.6249 0.7807
vn 0.0000 0.6249 0.7807
vn -0.7807 -0.6249 0.0000
vn -0.7807 0.6249 0.0000
vn 0.7071 -0.0049 -0.7071
usemtl Material
s off
f 36/1/1 20/2/1 19/3/1 33/4/1
f 40/5/2 57/6/2 23/7/2 18/8/2
f 49/9/3 5/10/3 14/11/3 48/12/3
f 54/13/2 37/14/2 17/15/2 28/16/2
f 29/17/2 43/18/2 42/19/2 30/20/2
f 60/21/2 43/18/2 29/17/2 24/22/2
f 1/23/2 2/24/2 9/25/2 10/26/2 13/27/2 14/28/2 5/29/2 6/30/2
f 11/31/1 12/32/1 3/33/1 4/34/1 7/35/1 8/36/1 15/37/1 16/38/1
f 16/39/4 44/40/4 59/41/4 11/42/4
f 12/43/5 58/44/5 39/45/5 3/46/5
f 46/47/1 32/48/1 31/49/1 47/50/1
f 26/51/3 31/52/3 30/53/3 27/54/3
f 35/55/6 1/23/6 6/30/6 52/56/6
f 22/57/5 19/3/5 18/8/5 23/7/5
f 50/58/1 47/59/1 31/52/1 26/51/1
f 36/1/1 51/60/1 25/61/1 20/2/1
f 48/62/7 14/63/7 13/64/7 45/65/7
f 20/2/6 25/61/6 28/16/6 17/15/6
f 32/48/4 21/66/4 24/22/4 29/17/4
f 5/10/8 49/9/8 52/56/8 6/30/8
f 44/40/9 16/39/9 15/67/9 41/68/9
f 30/20/10 31/49/10 32/48/10 29/17/10
f 20/2/11 17/15/11 18/8/11 19/3/11
f 24/22/12 21/66/12 22/57/12 23/7/12
f 26/51/13 27/54/13 28/16/13 25/61/13
f 62/69/14 10/70/14 9/71/14 63/72/14
f 64/73/1 33/4/1 19/3/1 22/57/1
f 3/46/15 39/45/15 38/74/15 4/34/15
f 21/66/1 61/75/1 64/73/1 22/57/1
f 4/34/6 38/74/6 53/76/6 7/35/6
f 11/42/16 59/41/16 58/44/16 12/43/16
f 60/21/2 24/22/2 23/7/2 57/6/2
f 63/72/5 9/71/5 2/77/5 34/78/5
f 25/61/1 51/60/1 50/58/1 26/51/1
f 45/65/4 13/64/4 10/70/4 62/69/4
f 8/79/3 56/80/3 41/81/3 15/82/3
f 46/47/1 61/75/1 21/66/1 32/48/1
f 27/54/2 55/83/2 54/13/2 28/16/2
f 56/80/17 8/79/17 7/35/17 53/76/17
f 42/84/2 55/83/2 27/54/2 30/53/2
f 17/15/2 37/14/2 40/5/2 18/8/2
f 62/69/18 63/72/18 64/73/18 61/75/18
f 34/78/19 35/55/19 36/1/19 33/4/19
f 38/74/20 39/45/20 40/5/20 37/14/20
f 58/44/21 59/41/21 60/21/21 57/6/21
f 54/13/22 55/83/22 56/80/22 53/76/22
f 50/58/23 51/60/23 52/56/23 49/9/23
f 46/47/24 47/50/24 48/62/24 45/65/24
f 42/19/25 43/18/25 44/40/25 41/68/25
f 51/60/26 36/1/26 35/55/26 52/56/26
f 33/4/27 64/73/27 63/72/27 34/78/27
f 57/6/28 40/5/28 39/45/28 58/44/28
f 37/14/29 54/13/29 53/76/29 38/74/29
f 47/59/30 50/58/30 49/9/30 48/12/30
f 55/83/31 42/84/31 41/81/31 56/80/31
f 61/75/32 46/47/32 45/65/32 62/69/32
f 43/18/33 60/21/33 59/41/33 44/40/33
f 34/78/34 2/77/34 1/23/34 35/55/34
